<?xml version="1.0" encoding="utf-8"?>
<!-- Generator: Adobe Illustrator 23.0.0, SVG Export Plug-In . SVG Version: 6.00 Build 0)  -->
<svg version="1.1" id="Layer_1" xmlns="http://www.w3.org/2000/svg" xmlns:xlink="http://www.w3.org/1999/xlink" x="0px" y="0px"
	 viewBox="0 0 30 30" style="enable-background:new 0 0 30 30;" xml:space="preserve">
<style type="text/css">
	.st0{fill:#FFFFFF;}
</style>
<path class="st0" d="M11.6,16.8c0,0.5-0.4,0.9-0.9,0.9H9v1.7c0,0.5-0.4,0.9-0.9,0.9c-0.5,0-0.9-0.4-0.9-0.9v-1.7H5.6
	c-0.5,0-0.9-0.4-0.9-0.9c0-0.5,0.4-0.9,0.9-0.9h1.7v-1.7c0-0.5,0.4-0.9,0.9-0.9c0.5,0,0.9,0.4,0.9,0.9V16h1.7
	C11.2,16,11.6,16.4,11.6,16.8z M23.1,15.6c-0.7,0-1.3,0.6-1.3,1.3c0,0.7,0.6,1.3,1.3,1.3c0.7,0,1.3-0.6,1.3-1.3
	C24.4,16.1,23.8,15.6,23.1,15.6 M23.1,14.7c1.2,0,2.1,1,2.1,2.1c0,1.2-1,2.1-2.1,2.1S21,18,21,16.8C21,15.7,21.9,14.7,23.1,14.7
	L23.1,14.7z M18,15.6c-0.7,0-1.3,0.6-1.3,1.3c0,0.7,0.6,1.3,1.3,1.3s1.3-0.6,1.3-1.3C19.3,16.1,18.7,15.6,18,15.6 M18,14.7
	c1.2,0,2.1,1,2.1,2.1c0,1.2-1,2.1-2.1,2.1s-2.1-1-2.1-2.1C15.9,15.7,16.8,14.7,18,14.7L18,14.7z M25.2,8.3H4.8
	c-0.9,0-1.7,0.8-1.7,1.7v10.2c0,0.9,0.8,1.7,1.7,1.7h20.4c0.9,0,1.7-0.8,1.7-1.7V10C26.9,9.1,26.1,8.3,25.2,8.3 M25.2,6.6
	c1.9,0,3.4,1.5,3.4,3.4v10.2c0,1.9-1.5,3.4-3.4,3.4H4.8c-1.9,0-3.4-1.5-3.4-3.4V10c0-1.9,1.5-3.4,3.4-3.4H25.2L25.2,6.6z"/>
</svg>
