<?xml version="1.0" encoding="utf-8"?>
<!-- Generator: Adobe Illustrator 23.0.0, SVG Export Plug-In . SVG Version: 6.00 Build 0)  -->
<svg version="1.1" id="Layer_1" xmlns="http://www.w3.org/2000/svg" xmlns:xlink="http://www.w3.org/1999/xlink" x="0px" y="0px"
	 viewBox="0 0 30 30" style="enable-background:new 0 0 30 30;" xml:space="preserve">
<style type="text/css">
	.st0{fill:#FFFFFF;}
</style>
<path class="st0" d="M15,3.3c3.2,0,6.2,1.2,8.4,3.5c2.2,2.2,3.5,5.2,3.5,8.4s-1.2,6.2-3.5,8.4c-2.2,2.2-5.2,3.5-8.4,3.5
	s-6.2-1.2-8.4-3.5c-2.2-2.2-3.5-5.2-3.5-8.4s1.2-6.2,3.5-8.4C8.8,4.6,11.8,3.3,15,3.3 M15,1.6C7.5,1.6,1.4,7.7,1.4,15.2
	S7.5,28.8,15,28.8c7.5,0,13.6-6.1,13.6-13.6S22.5,1.6,15,1.6L15,1.6z M21,20.3c0.6,0,1.2-0.3,1.5-0.9c0.5-0.8,0.2-1.9-0.6-2.3
	l-5.1-2.9V6.7C16.7,5.8,15.9,5,15,5c-0.9,0-1.7,0.8-1.7,1.7v8.5c0,0.6,0.3,1.2,0.9,1.5l6,3.4C20.4,20.3,20.7,20.3,21,20.3L21,20.3z"
	/>
</svg>
