<svg xmlns="http://www.w3.org/2000/svg" width="39.724" height="29.793" viewBox="0 0 39.724 29.793">
  <path id="Path_1123" data-name="Path 1123" d="M546.758,2080H516.965a4.972,4.972,0,0,0-4.965,4.966v19.862a4.972,4.972,0,0,0,4.965,4.966h29.793a4.972,4.972,0,0,0,4.966-4.966v-19.862A4.971,4.971,0,0,0,546.758,2080Zm-29.793,2.483h29.793a2.49,2.49,0,0,1,2.483,2.483v2.483H514.483v-2.483A2.49,2.49,0,0,1,516.965,2082.483Zm29.793,24.828H516.965a2.49,2.49,0,0,1-2.483-2.483v-12.414h34.758v12.414A2.49,2.49,0,0,1,546.758,2107.31Zm-1.241-9.931H533.724a.621.621,0,1,1,0-1.241h11.793a.621.621,0,1,1,0,1.241Zm0,3.724H533.724a.621.621,0,1,1,0-1.241h11.793a.621.621,0,1,1,0,1.241Z" transform="translate(-512 -2080)" fill="#fff"/>
</svg>
