<svg xmlns="http://www.w3.org/2000/svg" width="39.723" height="24.828" viewBox="0 0 39.723 24.828">
  <path id="Path_1122" data-name="Path 1122" d="M6668.864,6705.067a1.861,1.861,0,0,0-3.387.041l-9.311,21.1a1.861,1.861,0,0,0,.953,2.455,1.837,1.837,0,0,0,.751.158,1.862,1.862,0,0,0,1.706-1.111l1.153-2.613h13.451l1.249,2.655a1.862,1.862,0,0,0,3.37-1.586Zm-6.5,16.311,4.864-11.028,5.189,11.028Zm31.5-8.69a1.861,1.861,0,0,0-1.783,1.325,8.069,8.069,0,1,0,0,13.488,1.862,1.862,0,0,0,3.645-.537V6714.55A1.862,1.862,0,0,0,6693.869,6712.688Zm-6.207,12.414a4.345,4.345,0,1,1,4.345-4.345A4.35,4.35,0,0,1,6687.662,6725.1Z" transform="translate(-6656.008 -6703.998)" fill="#fff"/>
</svg>
